<?xml version="1.0" encoding="UTF-8"?>
<svg width="39px" height="40px" viewBox="0 0 39 40" version="1.1" xmlns="http://www.w3.org/2000/svg" xmlns:xlink="http://www.w3.org/1999/xlink">
    <!-- Generator: Sketch 53.2 (72643) - https://sketchapp.com -->
    <title>Shape</title>
    <desc>Created with Sketch.</desc>
    <g id="⚖️-V1.5" stroke="none" stroke-width="1" fill="none" fill-rule="evenodd">
        <g id="Choose-your-wallet---Fortmatic" transform="translate(-438.000000, -292.000000)" fill="#617BFF">
            <g id="Buy-Modal" transform="translate(389.000000, 150.000000)">
                <g id="Group-3" transform="translate(1.000000, 0.375000)">
                    <g id="Set-Selectors" transform="translate(22.000000, 117.250000)">
                        <g id="Group-8-Copy" transform="translate(0.000000, 0.625000)">
                            <g id="fortmatic-icon" transform="translate(25.386719, 24.000000)">
                                <path d="M19.7487539,0.614431407 L29.3158761,0.614431407 L38.8830608,0.614431407 L38.8830608,10.1638424 L29.3158761,10.1638424 L19.7487539,10.1638424 L10.1815692,10.1638424 L10.1815692,19.7131754 L10.1815692,20.3255002 L10.1815692,29.206956 L10.1815692,29.2625708 L10.1815692,38.7563513 L0.614431407,38.7563513 L0.614431407,29.2625708 L0.614431407,29.206956 L0.614431407,20.3255002 L0.614431407,19.7131754 L0.614431407,10.1638424 L0.614431407,0.614431407 L10.1815692,0.614431407 L19.7487539,0.614431407 Z M29.3158761,29.207268 L19.8044935,29.207268 L19.8044935,19.7135499 L38.8774431,19.7135499 L38.8774431,29.5412691 C38.8774431,31.9843263 37.9055257,34.3275142 36.1752869,36.0555684 C34.4450481,37.7836226 32.0981776,38.7551654 29.6505013,38.7566634 L29.3158761,38.7566634 L29.3158761,29.207268 Z" id="Shape"></path>
                            </g>
                        </g>
                    </g>
                </g>
            </g>
        </g>
    </g>
</svg>