<?xml version="1.0" encoding="UTF-8"?>
<svg width="45px" height="45px" viewBox="0 0 45 45" version="1.1" xmlns="http://www.w3.org/2000/svg" xmlns:xlink="http://www.w3.org/1999/xlink">
    <!-- Generator: Sketch 53.2 (72643) - https://sketchapp.com -->
    <title>ImToken Logo</title>
    <desc>Created with Sketch.</desc>
    <defs>
        <linearGradient x1="0%" y1="50%" x2="100%" y2="50%" id="linearGradient-1">
            <stop stop-color="#1184BB" offset="0%"></stop>
            <stop stop-color="#11C4D1" offset="100%"></stop>
        </linearGradient>
    </defs>
    <g id="⚖️-V1.5" stroke="none" stroke-width="1" fill="none" fill-rule="evenodd">
        <g id="Choose-your-wallet---Fortmatic" transform="translate(-751.000000, -285.000000)">
            <g id="ImToken-Logo" transform="translate(751.500000, 285.500000)">
                <rect id="Rectangle" fill="url(#linearGradient-1)" x="0" y="0" width="44" height="44" rx="8"></rect>
                <g id="imTokenLogo.0ea01e13" transform="translate(8.360000, 12.320000)" fill="#FFFFFF" fill-rule="nonzero">
                    <path d="M27.0685339,0.656889738 C27.9634923,12.7789943 20.1713574,18.5085386 13.1859295,19.119509 C6.69154086,19.6874851 0.578442952,15.6969435 0.0421467445,9.56574277 C-0.400241055,4.50034589 2.73041634,2.3438468 5.19013777,2.12887574 C7.72000764,1.90711613 9.84595822,3.65177594 10.0303808,5.7641494 C10.2080147,7.79506014 8.94081694,8.71943568 8.05943562,8.79637268 C7.36247683,8.85746972 6.48562122,8.43431617 6.40642136,7.52578061 C6.33853576,6.74509626 6.63496953,6.63874216 6.56255823,5.80940647 C6.4335756,4.33289475 5.14601213,4.16091791 4.44113336,4.22201495 C3.5880377,4.2966891 2.04024612,5.29234451 2.25748002,7.77243161 C2.47584536,10.2740158 4.87446974,12.2506181 8.01870426,11.9756814 C11.4118526,11.6792477 13.7742714,9.03736655 13.9519053,5.33194444 C13.9502976,5.13568566 13.9916165,4.94144825 14.072968,4.76283686 L14.0740994,4.75831116 C14.1106583,4.68069954 14.1534138,4.60616115 14.2019506,4.53542012 C14.2743619,4.42680316 14.3671389,4.30687194 14.4870701,4.17562646 C14.4882015,4.17223218 14.4882015,4.17223218 14.4904644,4.17223218 C14.5899645,4.06184855 14.6937585,3.95541254 14.8016067,3.85316988 C16.2837756,2.4547266 21.6218462,-0.843381931 26.6702717,0.200924819 C26.8893804,0.247897797 27.0514546,0.43345437 27.0685339,0.656889738" id="Path"></path>
                </g>
            </g>
        </g>
    </g>
</svg>