<?xml version="1.0" encoding="UTF-8"?>
<svg width="45px" height="45px" viewBox="0 0 45 45" version="1.1" xmlns="http://www.w3.org/2000/svg" xmlns:xlink="http://www.w3.org/1999/xlink">
    <!-- Generator: Sketch 54.1 (76490) - https://sketchapp.com -->
    <title>Trust Wallet 2</title>
    <desc>Created with Sketch.</desc>
    <g id="Trust-Wallet-2" stroke="none" stroke-width="1" fill="none" fill-rule="evenodd">
        <g id="ImToken-Logo" transform="translate(4.000000, 1.000000)" fill="#3274BB">
            <g id="trust-logo" transform="translate(0.500000, 0.871877)">
                <path d="M17.0688854,0.44511174 C17.6105224,0.0224595181 18.3670615,0.0224595181 18.9086986,0.44511174 C24.6858104,4.95430191 31.2860703,4.91794737 33.7779515,4.90420486 C33.9027559,4.90350372 34.0170431,4.90287268 34.1208131,4.90287268 C34.5232722,4.90287268 34.9089038,5.06567933 35.1914666,5.35479785 C35.4736788,5.64391637 35.6289832,6.03508703 35.6226728,6.44059617 C35.5055811,13.6915218 35.1942712,18.9613177 34.5895307,22.9024725 C33.9840892,26.846432 33.0683894,29.5781059 31.6629376,31.672436 C30.2476696,33.7814902 28.4278391,35.1024537 26.3215895,36.3722334 C25.6179871,36.7964281 24.894402,37.2090539 24.1343572,37.6427142 C22.5644861,38.53773 20.8400117,39.5210906 18.8207045,40.8746574 C18.3169294,41.2126109 17.6606546,41.2126109 17.1565289,40.8746574 C15.1403768,39.523194 13.4190576,38.5408852 11.8526922,37.646921 C11.0901934,37.2118585 10.3641543,36.7978304 9.65879908,36.3718828 C7.55395175,35.1017526 5.73727639,33.7807891 4.32481305,31.6710337 C2.92251636,29.5767036 2.00962121,26.8450297 1.40663364,22.9017714 C0.803996637,18.9609671 0.494439643,13.6913114 0.377347869,6.44059617 C0.37068696,6.03508703 0.525991318,5.64391637 0.808203527,5.35479785 C1.09076631,5.06567933 1.4763979,4.90287268 1.87885705,4.90287268 C1.98122471,4.90287268 2.09481074,4.90350372 2.21856342,4.90420486 C4.69046191,4.91794737 11.2910724,4.95465249 17.0688854,0.44511174 Z M3.40911331,7.92941457 C3.54338322,14.3435547 3.84662988,18.9823521 4.37529573,22.4407663 C4.94532933,26.1673698 5.761466,28.4050847 6.81494139,29.9788122 C7.8586007,31.5371144 9.22478825,32.5825266 11.2023772,33.775881 C11.8039624,34.1387253 12.4739097,34.5215523 13.2045063,34.9387356 C14.600142,35.7359412 16.2152372,36.6586525 17.988792,37.8071334 C19.7658525,36.656549 21.3841028,35.7327861 22.7821926,34.9345287 C23.5103352,34.5190983 24.1788801,34.137323 24.7790631,33.7755305 C26.759106,32.5818254 28.1284488,31.5364132 29.1745621,29.9774099 C30.2304915,28.4036824 31.0490822,26.1663181 31.6208687,22.4400652 C32.151638,18.981651 32.4562869,14.3434144 32.5905568,7.92958985 C29.5289926,7.88513705 23.540134,7.41568318 17.988792,3.51859551 C12.4430592,7.41165157 6.46156263,7.88415544 3.40911331,7.92941457 Z" id="Shape"></path>
            </g>
        </g>
    </g>
</svg>