<?xml version="1.0" encoding="UTF-8"?>
<svg width="17px" height="17px" viewBox="0 0 17 17" version="1.1" xmlns="http://www.w3.org/2000/svg" xmlns:xlink="http://www.w3.org/1999/xlink">
    <!-- Generator: Sketch 52.3 (67297) - http://www.bohemiancoding.com/sketch -->
    <title>balance-inactive</title>
    <desc>Created with Sketch.</desc>
    <g id="Symbols" stroke="none" stroke-width="1" fill="none" fill-rule="evenodd">
        <g id="Balance_inactive" fill="#9B97B3">
            <g id="Wallet_inactive">
                <g id="balance-inactive">
                    <g id="Wallet_icon">
                        <path d="M15.9726562,4.78125 L11.9726562,4.78125 L11.9726562,1.78125 C11.9726562,1.18125 11.5726562,0.78125 10.9726562,0.78125 L3.97265625,0.78125 C2.27265625,0.78125 0.97265625,2.08125 0.97265625,3.78125 L0.97265625,13.78125 C0.97265625,15.48125 2.27265625,16.78125 3.97265625,16.78125 L15.9726562,16.78125 C16.5726563,16.78125 16.9726562,16.38125 16.9726562,15.78125 L16.9726562,5.78125 C16.9726562,5.18125 16.5726563,4.78125 15.9726562,4.78125 Z M2.97265625,3.78125 C2.97265625,3.18125 3.37265625,2.78125 3.97265625,2.78125 L9.97265625,2.78125 L9.97265625,4.78125 L2.97265625,4.78125 L2.97265625,3.78125 Z M14.9726562,14.78125 L3.97265625,14.78125 C3.37265625,14.78125 2.97265625,14.38125 2.97265625,13.78125 L2.97265625,6.78125 L10.9726562,6.78125 L14.9726562,6.78125 L14.9726562,14.78125 Z" id="Shape" fill-rule="nonzero"></path>
                        <rect id="Rectangle-path" fill-rule="nonzero" x="11.9726562" y="9.78125" width="2" height="2"></rect>
                    </g>
                </g>
            </g>
        </g>
    </g>
</svg>