<?xml version="1.0" encoding="UTF-8"?>
<svg width="27px" height="23px" viewBox="0 0 27 23" version="1.1" xmlns="http://www.w3.org/2000/svg" xmlns:xlink="http://www.w3.org/1999/xlink">
    <!-- Generator: Sketch 54.1 (76490) - https://sketchapp.com -->
    <title>Group 10</title>
    <desc>Created with Sketch.</desc>
    <g id="⚖️-V1.5" stroke="none" stroke-width="1" fill="none" fill-rule="evenodd">
        <g id="Set-Landing---Smart-ETH---V2" transform="translate(-990.000000, -2005.000000)" stroke="#2D2CE5" stroke-width="2">
            <g id="Rectangle-5" transform="translate(129.588173, 1740.000000)">
                <g id="Group-21" transform="translate(0.000000, 191.000000)">
                    <g id="Is-Rebalance-Ready" transform="translate(862.304298, 60.500000)">
                        <g id="Group-23" transform="translate(0.000000, 14.500000)">
                            <g id="Group-10">
                                <circle id="Oval" cx="11.8042396" cy="1.5751838" r="1"></circle>
                                <path d="M6.27604356,20.9295738 L18.1409148,20.9295738 C17.7951054,20.3317724 17.1487615,19.9295738 16.4084792,19.9295738 L8.00847917,19.9295738 C7.26819682,19.9295738 6.62185298,20.3317724 6.27604356,20.9295738 Z" id="Rectangle"></path>
                                <path d="M11.8042396,18.9295738 L11.8042396,3.02957377" id="Path-8"></path>
                                <path d="M2.68799121,6.1428648 L20.920488,6.1428648" id="Line-2" stroke-linecap="square"></path>
                                <polyline id="Path-9" points="0.826267357 14 2.80423959 8.62957377 5.02626736 14"></polyline>
                                <polyline id="Path-9-Copy-2" points="18.9425157 14 20.920488 8.62957377 23.1425157 14"></polyline>
                                <path d="M2.80423959,16.9338134 C4.35297834,16.9338134 5.60847917,15.6783125 5.60847917,14.1295738 C5.50423959,14.1295738 0.104239586,14.1295738 1.76747506e-13,14.1295738 C1.76747506e-13,15.6783125 1.25550083,16.9338134 2.80423959,16.9338134 Z" id="Oval"></path>
                                <path d="M20.920488,16.9338134 C22.4692267,16.9338134 23.7247275,15.6783125 23.7247275,14.1295738 C23.620488,14.1295738 18.220488,14.1295738 18.1162484,14.1295738 C18.1162484,15.6783125 19.3717492,16.9338134 20.920488,16.9338134 Z" id="Oval-Copy-2"></path>
                            </g>
                        </g>
                    </g>
                </g>
            </g>
        </g>
    </g>
</svg>