<?xml version="1.0" encoding="UTF-8"?>
<svg width="83px" height="84px" viewBox="0 0 83 84" version="1.1" xmlns="http://www.w3.org/2000/svg" xmlns:xlink="http://www.w3.org/1999/xlink">
    <!-- Generator: Sketch 57.1 (83088) - https://sketch.com -->
    <title>Bid</title>
    <desc>Created with Sketch.</desc>
    <g id="Bid" stroke="none" stroke-width="1" fill="none" fill-rule="evenodd">
        <g id="Group" transform="translate(33.652439, 50.338443) rotate(-315.000000) translate(-33.652439, -50.338443) translate(7.152439, 5.338443)" fill-rule="nonzero">
            <path d="M9.68252306,3.07300922 L42.5586337,3.07300922 C43.6632032,3.07300922 44.5586337,3.96843972 44.5586337,5.07300922 L44.5586337,24.1205784 C44.5586337,25.2251479 43.6632032,26.1205784 42.5586337,26.1205784 L9.68252306,26.1205784 C8.57795356,26.1205784 7.68252306,25.2251479 7.68252306,24.1205784 L7.68252306,5.07300922 C7.68252306,3.96843972 8.57795356,3.07300922 9.68252306,3.07300922 Z" id="Rectangle-24" fill="#2D2CE5"></path>
            <path d="M44.5586337,13.8340437 L7.68252306,13.8340437 L7.68252306,4.26929107 C7.68252306,2.76001479 9.05835615,1.53650461 10.7555323,1.53650461 L41.4856245,1.53650461 C43.1828006,1.53650461 44.5586337,2.76001479 44.5586337,4.26929107 L44.5586337,13.8340437 Z" id="Rectangle-24-Copy-3" fill="#2D2CE5"></path>
            <rect id="Rectangle-24-Copy" fill="#2D2CE5" x="44.5586337" y="0" width="7.68252306" height="27.657083" rx="2"></rect>
            <path d="M46.5586337,0 L50.2411568,0 C51.3457263,-4.2495073e-16 52.2411568,0.8954305 52.2411568,2 L52.2411568,13.8285415 L52.2411568,13.8285415 L44.5586337,13.8285415 L44.5586337,2 C44.5586337,0.8954305 45.4540642,2.02906125e-16 46.5586337,0 Z" id="Rectangle-24-Copy-4" fill="#2D2CE5"></path>
            <rect id="Rectangle-24-Copy-2" fill="#2D2CE5" x="0" y="0" width="7.68252306" height="27.657083" rx="2"></rect>
            <path d="M2,0 L5.68252306,0 C6.78709255,-4.2495073e-16 7.68252306,0.8954305 7.68252306,2 L7.68252306,13.8285415 L7.68252306,13.8285415 L0,13.8285415 L0,2 C-1.3527075e-16,0.8954305 0.8954305,2.02906125e-16 2,0 Z" id="Rectangle-24-Copy-5" fill="#2D2CE5"></path>
            <rect id="Rectangle-25" fill="#2D2CE5" x="21.5110646" y="29.1935876" width="9.21902767" height="59.9236798" rx="4"></rect>
            <path d="M24.5110646,29.1935876 L26.1205784,29.1935876 L26.1205784,29.1935876 L26.1205784,89.1172674 L24.5110646,89.1172674 C22.8542103,89.1172674 21.5110646,87.7741217 21.5110646,86.1172674 L21.5110646,32.1935876 C21.5110646,30.5367334 22.8542103,29.1935876 24.5110646,29.1935876 Z" id="Rectangle-25-Copy" fill="#2D2CE5"></path>
            <path d="M26.1205784,29.9618399 C28.6663426,29.9618399 30.7300922,30.2028472 30.7300922,27.657083 C30.7300922,25.1113188 28.6663426,23.0475692 26.1205784,23.0475692 C23.5748142,23.0475692 21.5110646,25.1113188 21.5110646,27.657083 C21.5110646,30.2028472 23.5748142,29.9618399 26.1205784,29.9618399 Z" id="Oval" fill="#2D2CE5"></path>
            <rect id="Rectangle-26" fill="#FFFFFF" x="13.8285415" y="1.53650461" width="4.60951383" height="24.5840738"></rect>
            <rect id="Rectangle-26-Copy" fill="#FFFFFF" x="33.8031014" y="1.53650461" width="4.60951383" height="24.5840738"></rect>
            <rect id="Rectangle-26-Copy-3" fill="#EDF4FB" x="13.8285415" y="13.8285415" width="4.60951383" height="12.2920369"></rect>
            <rect id="Rectangle-26-Copy-2" fill="#FFFFFF" x="33.8031014" y="13.8285415" width="4.60951383" height="12.2920369"></rect>
            <rect id="Rectangle-27" fill="#2D2CE5" x="19.9745599" y="43.0221291" width="12.2920369" height="6.14601844" rx="1"></rect>
            <path d="M20.9745599,43.0221291 L31.2665968,43.0221291 C31.8188816,43.0221291 32.2665968,43.4698444 32.2665968,44.0221291 L32.2665968,46.0951383 L32.2665968,46.0951383 L19.9745599,46.0951383 L19.9745599,44.0221291 C19.9745599,43.4698444 20.4222752,43.0221291 20.9745599,43.0221291 Z" id="Rectangle-27-Copy-3" fill="#FFFFFF"></path>
        </g>
    </g>
</svg>