<?xml version="1.0" encoding="UTF-8"?>
<svg width="40px" height="41px" viewBox="0 0 40 41" version="1.1" xmlns="http://www.w3.org/2000/svg" xmlns:xlink="http://www.w3.org/1999/xlink">
    <!-- Generator: Sketch 52.6 (67491) - http://www.bohemiancoding.com/sketch -->
    <title>BitEth</title>
    <desc>Created with Sketch.</desc>
    <defs>
        <linearGradient x1="111.238363%" y1="81.9215715%" x2="8.62907776%" y2="0%" id="linearGradient-1">
            <stop stop-color="#295184" offset="0%"></stop>
            <stop stop-color="#00C28C" offset="100%"></stop>
        </linearGradient>
        <linearGradient x1="0%" y1="338.12826%" x2="100%" y2="-232.987744%" id="linearGradient-2">
            <stop stop-color="#295184" offset="0%"></stop>
            <stop stop-color="#00C28C" offset="100%"></stop>
        </linearGradient>
    </defs>
    <g id="BitEth" stroke="none" stroke-width="1" fill="none" fill-rule="evenodd">
        <g id="Group-Copy" transform="translate(20.000000, 21.000000) rotate(-270.000000) translate(-20.000000, -21.000000) translate(2.000000, 3.000000)" fill-rule="nonzero">
            <path d="M18,37.5 C7.23044738,37.5 -1.5,28.7695526 -1.5,18 C-1.5,7.23044738 7.23044738,-1.5 18,-1.5 C28.7695526,-1.5 37.5,7.23044738 37.5,18 C37.5,28.7695526 28.7695526,37.5 18,37.5 Z M18,34.5 C27.1126984,34.5 34.5,27.1126984 34.5,18 C34.5,8.88730163 27.1126984,1.5 18,1.5 C8.88730163,1.5 1.5,8.88730163 1.5,18 C1.5,27.1126984 8.88730163,34.5 18,34.5 Z" id="Oval-8" fill="url(#linearGradient-1)"></path>
            <path d="M2.42643521,18.6817334 C1.77915233,19.1987598 0.835293112,19.0931662 0.318266636,18.4458833 C-0.19875984,17.7986004 -0.0931661631,16.8547412 0.554116715,16.3377147 C6.09340724,11.913127 12.3132968,11.913127 18.8412413,16.2613155 C24.323418,19.9129302 29.1091789,19.9129302 33.5720886,16.3388954 C34.2187194,15.8210536 35.1627109,15.9254578 35.6805527,16.5720886 C36.1983945,17.2187194 36.0939903,18.1627109 35.4473595,18.6805527 C29.9206415,23.1065178 23.7063802,23.1065178 17.1781403,18.7581325 C11.6956681,15.1063211 6.90261442,15.1063211 2.42643521,18.6817334 Z" id="Path-17" fill="url(#linearGradient-2)" transform="translate(17.999999, 17.509725) scale(-1, 1) rotate(-90.000000) translate(-17.999999, -17.509725) "></path>
        </g>
    </g>
</svg>