<?xml version="1.0" encoding="UTF-8"?>
<svg width="16px" height="16px" viewBox="0 0 16 16" version="1.1" xmlns="http://www.w3.org/2000/svg" xmlns:xlink="http://www.w3.org/1999/xlink">
    <!-- Generator: Sketch 52.3 (67297) - http://www.bohemiancoding.com/sketch -->
    <title>creator-active</title>
    <desc>Created with Sketch.</desc>
    <g id="Symbols" stroke="none" stroke-width="1" fill="none" fill-rule="evenodd">
        <g id="creator_active" transform="translate(-1.000000, 0.000000)" fill="#1D144F" fill-rule="nonzero">
            <g id="creator_inactive" transform="translate(0.835938, 0.000000)">
                <g id="design" transform="translate(0.164062, 0.000000)">
                    <g id="creator-active">
                        <path d="M2.2,5.6 L5.6,2.2 L3.7,0.3 C3.3,-0.1 2.7,-0.1 2.3,0.3 L0.3,2.3 C-0.1,2.7 -0.1,3.3 0.3,3.7 L2.2,5.6 Z" id="Shape"></path>
                        <path d="M13.8,10.4 L10.4,13.8 L12.3,15.7 C12.5,15.9 12.7,16 13,16 L16,16 L16,13 C16,12.7 15.9,12.5 15.7,12.3 L13.8,10.4 Z" id="Shape"></path>
                        <path d="M15.7,4.3 L11.7,0.3 C11.3,-0.1 10.7,-0.1 10.3,0.3 L9,1.6 L10.7,3.3 L9.3,4.7 L7.6,3 L6,4.6 L7.7,6.3 L6.3,7.7 L4.6,6 L3,7.6 L4.7,9.3 L3.3,10.7 L1.6,9 L0.3,10.3 C-0.1,10.7 -0.1,11.3 0.3,11.7 L4.3,15.7 C4.7,16.1 5.3,16.1 5.7,15.7 L15.7,5.7 C16.1,5.3 16.1,4.7 15.7,4.3 Z" id="Shape"></path>
                    </g>
                </g>
            </g>
        </g>
    </g>
</svg>