<svg width="16px" height="13px" viewBox="0 0 16 13" version="1.1" xmlns="http://www.w3.org/2000/svg" xmlns:xlink="http://www.w3.org/1999/xlink">
   <desc>Set Labs. Dashboard Icon</desc>
   <defs></defs>
   <g stroke="none" stroke-width="1" fill="none" fill-rule="evenodd">
       <g id="Home-Page-(with-MetaMask)" transform="translate(-1174.000000, -79.000000)" fill="#FFFFFF" fill-rule="nonzero">
           <g id="Group-16" transform="translate(878.000000, 56.000000)">
               <g id="Group-17" transform="translate(259.000000, 0.000000)">
                   <g id="Group-14" transform="translate(37.000000, 21.500000)">
                       <g id="segmentation" transform="translate(0.000000, 2.000000)">
                           <path d="M11,2 L1,2.019 C0.448,2.019 0,1.571 0,1.019 C0,0.467 0.448,0.019 1,0.019 L11,0 L11,2 Z" id="Shape"></path>
                           <path d="M15,7 L5,7 L5,5 L15,5 C15.552,5 16,5.448 16,6 C16,6.552 15.552,7 15,7 Z" id="Shape"></path>
                           <path d="M15,2.019 L13,2 L13,0 L15,0.019 C15.552,0.019 16,0.467 16,1.019 C16,1.572 15.552,2.019 15,2.019 Z" id="Shape"></path>
                           <path d="M11,12 L1,12 C0.448,12 0,11.552 0,11 C0,10.448 0.448,10 1,10 L11,10 L11,12 Z" id="Shape"></path>
                           <path d="M15,12 L13,12 L13,10 L15,10 C15.552,10 16,10.448 16,11 C16,11.552 15.552,12 15,12 Z" id="Shape"></path>
                           <path d="M3,7 L1,7 C0.448,7 0,6.552 0,6 C0,5.448 0.448,5 1,5 L3,5 L3,7 Z" id="Shape"></path>
                       </g>
                   </g>
               </g>
           </g>
       </g>
   </g>
</svg>