<?xml version="1.0" encoding="UTF-8"?>
<svg width="45px" height="45px" viewBox="0 0 45 45" version="1.1" xmlns="http://www.w3.org/2000/svg" xmlns:xlink="http://www.w3.org/1999/xlink">
    <!-- Generator: Sketch 54.1 (76490) - https://sketchapp.com -->
    <title>FAQ</title>
    <desc>Created with Sketch.</desc>
    <g id="FAQ" stroke="none" stroke-width="1" fill="none" fill-rule="evenodd">
        <g id="Group-2" transform="translate(3.500000, 2.000000)">
            <ellipse id="Oval" fill="#837AFF" cx="19.7810601" cy="20.0569042" rx="19.7810601" ry="19.5569042"></ellipse>
            <path d="M19.7810601,39.6138084 C30.705838,39.6138084 39.5621202,30.8578841 39.5621202,20.0569042 C39.5621202,9.25592425 30.705838,0.5 19.7810601,0.5 C19.9902215,0.5 19.9902215,39.3235294 19.7810601,39.6138084 Z" id="Oval-Copy-3" fill="#1D144F"></path>
        </g>
        <path d="M21.2966354,26.174796 L21.2966354,25.0731137 C21.2966354,22.7827742 22.8331923,21.3621839 24.224791,19.9995769 C25.2974816,18.9268863 26.2542057,17.9701622 26.2542057,16.7235217 C26.2542057,15.2449481 25.4424398,14.2882241 23.6739498,14.2882241 C21.8764682,14.2882241 20.6298278,15.5638562 20.4268863,17.5642793 L17.0638562,17.5642793 C17.2667976,13.7663746 19.9630201,11.3890602 23.8478997,11.3890602 C27.993704,11.3890602 29.9361438,13.650408 29.9361438,16.462597 C29.9361438,18.5210033 28.6895034,19.8546187 27.3848796,21.1302508 C26.0222726,22.4348746 24.6306739,23.6235318 24.543699,25.2470636 L24.543699,26.174796 L21.2966354,26.174796 Z M22.8911756,32.6109398 C21.5865518,32.6109398 20.5138612,31.6252241 20.5138612,30.3785836 C20.5138612,29.1029515 21.5865518,28.1172358 22.8911756,28.1172358 C24.1668077,28.1172358 25.2105067,29.1029515 25.2105067,30.3785836 C25.2105067,31.6252241 24.1668077,32.6109398 22.8911756,32.6109398 Z" id="?" fill="#FFFFFF" fill-rule="nonzero"></path>
    </g>
</svg>