<?xml version="1.0" encoding="UTF-8"?>
<svg width="17px" height="22px" viewBox="0 0 17 22" version="1.1" xmlns="http://www.w3.org/2000/svg" xmlns:xlink="http://www.w3.org/1999/xlink">
    <!-- Generator: Sketch 52.3 (67297) - http://www.bohemiancoding.com/sketch -->
    <title>Shape</title>
    <desc>Created with Sketch.</desc>
    <g id="💥-V2" stroke="none" stroke-width="1" fill="none" fill-rule="evenodd">
        <g id="3.-Adjust-Allocations-3" transform="translate(-681.000000, -601.000000)" fill="#9B97B3" fill-rule="nonzero">
            <g id="Group-15" transform="translate(42.000000, 380.320312)">
                <g id="Group-3-Copy-9" transform="translate(5.000000, 193.000000)">
                    <g id="Group-9" transform="translate(450.000000, 25.000000)">
                        <g id="Group-12" transform="translate(184.000000, 0.000000)">
                            <g id="ic_lock_open_24px" transform="translate(0.890625, 2.978516)">
                                <path d="M8,16 C9.1,16 10,15.1 10,14 C10,12.9 9.1,12 8,12 C6.9,12 6,12.9 6,14 C6,15.1 6.9,16 8,16 Z M14,7 L13,7 L13,5 C13,2.24 10.76,0 8,0 C5.24,0 3,2.24 3,5 L4.9,5 C4.9,3.29 6.29,1.9 8,1.9 C9.71,1.9 11.1,3.29 11.1,5 L11.1,7 L2,7 C0.9,7 0,7.9 0,9 L0,19 C0,20.1 0.9,21 2,21 L14,21 C15.1,21 16,20.1 16,19 L16,9 C16,7.9 15.1,7 14,7 Z M14,19 L2,19 L2,9 L14,9 L14,19 Z" id="Shape"></path>
                            </g>
                        </g>
                    </g>
                </g>
            </g>
        </g>
    </g>
</svg>