<svg width="24px" height="16px" viewBox="0 0 24 16" version="1.1" xmlns="http://www.w3.org/2000/svg" xmlns:xlink="http://www.w3.org/1999/xlink">
    <desc>Set Labs. Show advanced icon.</desc>
    <defs></defs>
    <g id="Set--Detail-/-Dashboard" stroke="none" stroke-width="1" fill="none" fill-rule="evenodd">
        <g id="New-Detail-(ETHX)" transform="translate(-641.000000, -142.000000)" fill="#9B97B3" fill-rule="nonzero">
            <g id="Group-17" transform="translate(48.000000, 100.000000)">
                <g id="Group-15" transform="translate(580.000000, 30.000000)">
                    <g id="segmentation" transform="translate(13.000000, 12.000000)">
                        <path d="M23,2 L21,2 C20.447,2 20,1.553 20,1 C20,0.447 20.447,0 21,0 L23,0 C23.553,0 24,0.447 24,1 C24,1.553 23.553,2 23,2 Z" id="Shape"></path>
                        <path d="M17,2 L1,2 C0.447,2 0,1.553 0,1 C0,0.447 0.447,0 1,0 L17,0 C17.553,0 18,0.447 18,1 C18,1.553 17.553,2 17,2 Z" id="Shape"></path>
                        <path d="M3,9 L1,9 C0.447,9 0,8.553 0,8 C0,7.447 0.447,7 1,7 L3,7 C3.553,7 4,7.447 4,8 C4,8.553 3.553,9 3,9 Z" id="Shape"></path>
                        <path d="M23,9 L7,9 C6.447,9 6,8.553 6,8 C6,7.447 6.447,7 7,7 L23,7 C23.553,7 24,7.447 24,8 C24,8.553 23.553,9 23,9 Z" id="Shape"></path>
                        <path d="M23,16 L21,16 C20.447,16 20,15.553 20,15 C20,14.447 20.447,14 21,14 L23,14 C23.553,14 24,14.447 24,15 C24,15.553 23.553,16 23,16 Z" id="Shape"></path>
                        <path d="M17,16 L1,16 C0.447,16 0,15.553 0,15 C0,14.447 0.447,14 1,14 L17,14 C17.553,14 18,14.447 18,15 C18,15.553 17.553,16 17,16 Z" id="Shape"></path>
                    </g>
                </g>
            </g>
        </g>
    </g>
</svg>