<?xml version="1.0" encoding="UTF-8"?>
<svg width="21px" height="21px" viewBox="0 0 21 21" version="1.1" xmlns="http://www.w3.org/2000/svg" xmlns:xlink="http://www.w3.org/1999/xlink">
    <!-- Generator: Sketch 54.1 (76490) - https://sketchapp.com -->
    <title>send-2</title>
    <desc>Created with Sketch.</desc>
    <g id="⚖️-V1.5" stroke="none" stroke-width="1" fill="none" fill-rule="evenodd">
        <g id="User-Profile---Portfolio" transform="translate(-193.000000, -1203.000000)" fill="#2D2CE5" fill-rule="nonzero">
            <g id="Transactions" transform="translate(185.500000, 781.000000)">
                <g id="Group-39" transform="translate(3.096882, 77.000000)">
                    <g id="Group-32" transform="translate(5.000000, 334.000000)">
                        <g id="Group-27">
                            <g id="send-2" transform="translate(0.117188, 11.546875)">
                                <path d="M19.403667,0.361958008 C19.066416,0.0259423828 18.5636279,-0.0889453125 18.1151953,0.0728857422 L0.820273438,6.24964355 C0.354545898,6.41518066 0.0321191406,6.84384766 0.00247070313,7.33675293 C-0.0271777344,7.83089355 0.239658203,8.29415039 0.683149414,8.51651367 L6.34847168,11.3479395 L13.5888672,6.17675781 L8.4164502,13.4183887 L11.247876,19.0837109 C11.4591211,19.5024951 11.8877881,19.765625 12.3535156,19.765625 C12.379458,19.765625 12.404165,19.7643896 12.4288721,19.7631543 C12.9230127,19.7335059 13.3516797,19.4123145 13.5184521,18.9453516 L19.69521,1.65042969 C19.8545703,1.20199707 19.740918,0.699208984 19.403667,0.361958008 Z" id="Shape"></path>
                            </g>
                        </g>
                    </g>
                </g>
            </g>
        </g>
    </g>
</svg>