<?xml version="1.0" encoding="UTF-8"?>
<svg width="19px" height="18px" viewBox="0 0 19 18" version="1.1" xmlns="http://www.w3.org/2000/svg" xmlns:xlink="http://www.w3.org/1999/xlink">
    <!-- Generator: Sketch 53.2 (72643) - https://sketchapp.com -->
    <title>Group 2</title>
    <desc>Created with Sketch.</desc>
    <g id="♠️-Symbols" stroke="none" stroke-width="1" fill="none" fill-rule="evenodd">
        <g id="V1.5_Nav" transform="translate(-941.000000, -18.000000)" fill="#9B97B3">
            <g id="Group-2" transform="translate(950.500000, 27.000000) rotate(-180.000000) translate(-950.500000, -27.000000) translate(941.500000, 18.000000)">
                <path d="M9,18 C4.02943725,18 1.56319402e-13,13.9705627 1.56319402e-13,9 C1.56319402e-13,4.02943725 4.02943725,4.26325641e-14 9,4.26325641e-14 C13.9705627,4.26325641e-14 18,4.02943725 18,9 C18,13.9705627 13.9705627,18 9,18 Z M9,16.7111429 C13.2587466,16.7111429 16.7111429,13.2587466 16.7111429,9 C16.7111429,4.74125338 13.2587466,1.28885711 9,1.28885711 C4.74125338,1.28885711 1.28885711,4.74125338 1.28885711,9 C1.28885711,13.2587466 4.74125338,16.7111429 9,16.7111429 Z" id="Combined-Shape"></path>
                <path d="M9,4.74966387e-30 C13.9705627,5.0515308e-15 18,4.02943725 18,9 C18,13.9705627 13.9705627,18 9,18 L9,0 Z" id="Combined-Shape"></path>
            </g>
        </g>
    </g>
</svg>